<svg width="88" height="88" viewBox="0 0 88 88" fill="none" xmlns="http://www.w3.org/2000/svg">
<path d="M82.5 22H71.225C69.85 15.675 64.35 11 57.75 11C51.15 11 45.65 15.675 44.275 22H5.5V27.5H44.275C45.65 33.825 51.15 38.5 57.75 38.5C64.35 38.5 69.85 33.825 71.225 27.5H82.5V22ZM57.75 33C53.075 33 49.5 29.425 49.5 24.75C49.5 20.075 53.075 16.5 57.75 16.5C62.425 16.5 66 20.075 66 24.75C66 29.425 62.425 33 57.75 33Z" fill="#929292"/>
<path d="M5.5 66H16.775C18.15 72.325 23.65 77 30.25 77C36.85 77 42.35 72.325 43.725 66H82.5V60.5H43.725C42.35 54.175 36.85 49.5 30.25 49.5C23.65 49.5 18.15 54.175 16.775 60.5H5.5V66ZM30.25 55C34.925 55 38.5 58.575 38.5 63.25C38.5 67.925 34.925 71.5 30.25 71.5C25.575 71.5 22 67.925 22 63.25C22 58.575 25.575 55 30.25 55Z" fill="#929292"/>
</svg>
