<svg width="60" height="74" viewBox="0 0 60 74" fill="none" xmlns="http://www.w3.org/2000/svg">
<path d="M31.5 26V1.83337H52C53.5471 1.83337 55.0308 2.44796 56.1248 3.54192C57.2188 4.63588 57.8333 6.11961 57.8333 7.66671V66.3334C57.8333 67.8805 57.2188 69.3642 56.1248 70.4582C55.0308 71.5521 53.5471 72.1667 52 72.1667H8C6.45291 72.1667 4.96918 71.5521 3.87522 70.4582C2.78125 69.3642 2.16667 67.8805 2.16667 66.3334V7.66671C2.16667 6.11961 2.78125 4.63588 3.87522 3.54192C4.96918 2.44796 6.45291 1.83337 8 1.83337H10.1667V26V28.6493L12.4384 27.2863L20.8333 22.2493L29.2283 27.2863L31.5 28.6493V26Z" stroke="#929292" stroke-width="3"/>
</svg>
