<svg width="69" height="67" viewBox="0 0 69 67" fill="none" xmlns="http://www.w3.org/2000/svg">
<path d="M63.2999 32.7089L63.2939 32.7147L63.288 32.7206L49.2054 46.8374L46.1226 43.7546L60.6427 29.2686L61.7059 28.2079L60.644 27.146L57.124 23.626L56.0671 22.5691L55.0064 23.6223L50.8604 27.7391L39.2294 16.1081L52.2459 3.12539L52.2473 3.124C53.1074 2.26389 54.5184 2.30512 55.2685 3.09574L55.2821 3.11005L55.296 3.124L63.876 11.704L63.89 11.718L63.9043 11.7315C64.6949 12.4816 64.7361 13.8926 63.876 14.7527L63.8367 14.792C63.2419 15.3867 62.5669 16.0616 62.0417 16.7533C61.5239 17.4351 60.9921 18.3329 60.9457 19.3883C60.8572 20.5245 61.4155 21.4868 61.9182 22.1552C62.4356 22.8434 63.1141 23.5005 63.6727 24.0416L63.6901 24.0585C63.8078 24.181 63.9231 24.3006 64.036 24.4176C64.7992 25.209 65.4484 25.8822 65.9405 26.5466C66.5074 27.3119 66.6805 27.8299 66.6646 28.2188C66.6472 28.6437 66.3964 29.2524 65.7426 30.1003C65.1065 30.9251 64.2485 31.7789 63.2999 32.7089ZM13.1282 65.5H1.5V53.8709L35.0539 20.2819L46.6826 31.9106L13.1282 65.5Z" fill="#F2C94C" stroke="#F2C94C" stroke-width="3"/>
</svg>
