<svg width="74" height="56" viewBox="0 0 74 56" fill="none" xmlns="http://www.w3.org/2000/svg">
<path d="M13.1837 21.4118C13.127 21.8027 13.0967 22.2027 13.0967 22.61C13.0967 24.8903 14.3637 27.2032 16.2303 29.2881C18.1287 31.4086 20.8085 33.4775 24.0147 35.2913C30.4284 38.9198 39.1418 41.6366 48.44 41.6366C52.5748 41.6366 56.3689 40.8695 59.1866 39.2682C62.052 37.6398 63.9833 35.0812 63.9833 31.6666C63.9833 31.4045 63.9731 31.1491 63.8767 30.5486C69.4362 33.7173 72.1667 38.0921 72.1667 41.64C72.1667 44.3977 71.2122 47.4724 68.3383 49.8874C65.4328 52.329 60.3748 54.2566 51.85 54.2566C40.7508 54.2566 28.109 50.6066 18.2486 45.4444C13.3228 42.8656 9.16023 39.945 6.25174 36.9792C3.31029 33.9797 1.83333 31.1246 1.83333 28.66C1.83333 27.1119 2.26253 25.9763 2.932 25.1019C3.61728 24.2068 4.627 23.4922 5.92044 22.9324C7.99391 22.0348 10.5912 21.6191 13.1837 21.4118ZM56.3935 29.6519C54.7506 30.3289 52.7028 30.625 50.7467 30.7184V30.7166H49.2467C40.1849 30.7166 32.2543 27.8944 26.5964 24.6416C23.7666 23.0148 21.5392 21.2996 20.0411 19.8132C19.2901 19.0681 18.7495 18.4073 18.4072 17.8695C18.2367 17.6017 18.1289 17.3853 18.0666 17.2221C18.0077 17.0679 18.0036 16.9981 18.0033 16.9981C18.0033 16.9981 18.0033 16.9987 18.0033 17C18.0033 16.8962 18.0139 16.8125 18.0421 16.6149C18.3165 15.8049 19.1742 13.352 19.9905 11.0248C20.4211 9.79688 20.8381 8.61016 21.1474 7.73037L21.5188 6.67422L21.6219 6.38116L21.649 6.30428L21.6556 6.28542C22.2078 4.76897 22.7809 3.80915 23.362 3.23797C23.893 2.71592 24.4688 2.47662 25.23 2.47662C26.0287 2.47662 26.7897 2.82905 27.9598 3.40438C27.98 3.41429 28.0003 3.42427 28.0207 3.43431C29.0719 3.95145 30.4714 4.63995 32.1233 4.63995C34.0957 4.63995 35.3123 3.51889 36.0962 2.79035C36.9939 1.95603 37.2766 1.74329 37.6967 1.74329C38.075 1.74329 38.8604 1.88502 40.0215 2.2102C41.1336 2.52167 42.4557 2.96165 43.8361 3.4669C46.6035 4.47981 49.5146 5.7216 51.3154 6.63965L51.3154 6.63969L51.3258 6.64493C53.7166 7.8403 54.8465 8.64967 55.4763 9.37294C56.0562 10.0388 56.3026 10.729 56.623 12.0626L59.4813 24.522L59.4846 24.5363L59.4881 24.5504C59.5593 24.8353 59.5812 25.1104 59.5585 25.3821L59.5533 25.4442V25.5066C59.5533 26.617 59.2267 27.4223 58.7222 28.0469C58.1982 28.6958 57.4141 29.2312 56.3935 29.6519Z" stroke="#929292" stroke-width="3"/>
</svg>
